{"title":"If.Only.2004.DVDRip.XviD.AC3-Psycho","uid":6741854,"size":965705586,"categoryP":"video","categoryS":"movies","magnet":"?xt=urn:btih:05584078e6e6ffea6a4c838c3ac8374742d23134&amp;dn=If.Only.2004.DVDRip.XviD.AC3-Psycho&amp;tr=udp%3A%2F%2Ftracker.openbittorrent.com%3A80&amp;tr=udp%3A%2F%2Fopen.demonii.com%3A1337&amp;tr=udp%3A%2F%2Ftracker.coppersurfer.tk%3A6969&amp;tr=udp%3A%2F%2Fexodus.desync.com%3A6969","seeders":4,"leechers":1,"uploader":"Francisco1206","files":-1,"time":1318535981,"description":"It takes a tragedy to teach the young businessman Ian to put love ahead of work and open up to his musician girlfriend Samantha. \n\nCAST:\n\nJennifer Love Hewitt.........Samantha Andrews\nPaul Nicholls................Ian Wyndham\nTom Wilkinson................Taxi Driver\nDiana Hardcastle.............Claire\nLucy Davenport...............Lottie\nRoy Sampson..................Dunbar\nKevin Moore..................Hotel Employee\nNeville Phillips.............Concert MC\nBen Ridgeway.................Teenage Boy\nTeo-Wa Vuong.................Enniko\nTerence Harvey...............Trahem\nAl Wilde.....................Oliver\nDanny Babington..............Nigel\nStewart Wright...............Mike\nGraham Turner................Richard \n\nGeneral\n*******\nFormat                           : AVI\nFormat/Info                      : Audio Video Interleave\nFile size                        : 921 MiB\nDuration                         : 1h 31mn\nOverall bit rate                 : 1 403 Kbps\n\nVideo\n*****\nID                               : 0\nFormat                           : MPEG-4 Visual\nFormat profile                   : Simple@L3\nFormat settings, BVOP            : No\nFormat settings, QPel            : No\nFormat settings, GMC             : No warppoints\nFormat settings, Matrix          : Default (H.263)\nCodec ID                         : XVID\nCodec ID/Hint                    : XviD\nDuration                         : 1h 31mn\nBit rate                         : 1 200 Kbps\nWidth                            : 720 pixels\nHeight                           : 400 pixels\nDisplay aspect ratio             : 16:9\nFrame rate                       : 23.976 fps\nResolution                       : 8 bits\nColorimetry                      : 4:2:0\nScan type                        : Progressive\nBits/(Pixel*Frame)               : 0.174\nStream size                      : 788 MiB (86%)\nWriting library                  : XviD 1.1.2 (UTC 2006-11-01)\n\nAudio\n*****\nID                               : 1\nFormat                           : AC-3\nFormat/Info                      : Audio Coding 3\nFormat profile                   : Dolby Digital\nCodec ID                         : 2000\nDuration                         : 1h 31mn\nBit rate mode                    : Constant\nBit rate                         : 192 Kbps\nChannel(s)                       : 2 channels\nChannel positions                : Front: L R\nSampling rate                    : 48.0 KHz\nStream size                      : 126 MiB (14%)\n\n\n","torrent":{"xt":"urn:btih:05584078e6e6ffea6a4c838c3ac8374742d23134","amp;dn":"If.Only.2004.DVDRip.XviD.AC3-Psycho","amp;tr":["udp%3A%2F%2Ftracker.openbittorrent.com%3A80","udp%3A%2F%2Fopen.demonii.com%3A1337","udp%3A%2F%2Ftracker.coppersurfer.tk%3A6969","udp%3A%2F%2Fexodus.desync.com%3A6969"],"infoHash":"05584078e6e6ffea6a4c838c3ac8374742d23134","infoHashBuffer":{"type":"Buffer","data":[5,88,64,120,230,230,255,234,106,76,131,140,58,200,55,71,66,210,49,52]},"announce":[],"urlList":[]}}